# xmcd
#
# Track frame offsets:
#  183
#  14903
#  31188
#  52950
#  67908
#  78128
#  92165
#  109475
#  128528
#  136850
#
# Disc length: 2068 seconds
#
# Revision: 0
# Processed by: cddbd v1.5.1PL2 Copyright (c) Steve Scherf et al.
# Submitted via: Collectorz.com_Music_Collector 6.9
#
DISCID=7a08120a
DTITLE=Acuff's Rose - Son Of The North Wind
DYEAR=1995
DGENRE=Australia - Country, Alternative 
TTITLE0=In Every Home
TTITLE1=One Way Conversation (C K's Blues)
TTITLE2=The Spell
TTITLE3=Summer Morn'
TTITLE4=Sitting By The River
TTITLE5=Never Coming Down
TTITLE6=The Wandering
TTITLE7=Crashing Through The Wind
TTITLE8=Done In Pawn
TTITLE9=Son Of The North Wind
EXTD=
EXTT0=
EXTT1=
EXTT2=
EXTT3=
EXTT4=
EXTT5=
EXTT6=
EXTT7=
EXTT8=
EXTT9=
PLAYORDER=
